<svg width="18" height="38" viewBox="0 0 18 38" fill="none" xmlns="http://www.w3.org/2000/svg">
<path d="M1.45897 17.0054L1.52764 0.205572L9.61557 0.238632C11.1836 0.245041 12.5345 0.506566 13.6684 1.0232C14.8183 1.53991 15.7033 2.27953 16.3233 3.24208C16.9435 4.18862 17.2509 5.30989 17.2456 6.60587C17.2403 7.90186 16.9237 9.02058 16.2959 9.96202C15.6681 10.8875 14.7772 11.5958 13.6232 12.0871C12.4852 12.5785 11.1322 12.8209 9.56416 12.8145L4.62021 12.7943L7.1497 10.4766L7.12292 17.0286L1.45897 17.0054ZM11.5149 17.0465L7.41193 10.9097L13.4119 10.9342L17.5628 17.0713L11.5149 17.0465ZM7.14715 11.1006L4.63767 8.52236L9.22163 8.54109C10.0056 8.5443 10.5823 8.37065 10.9518 8.02016C11.3372 7.66973 11.5312 7.19052 11.5337 6.58253C11.5361 5.97453 11.3461 5.49375 10.9635 5.14018C10.597 4.78668 10.0217 4.60833 9.23772 4.60513L4.65376 4.58639L7.18423 2.02871L7.14715 11.1006ZM7.63959 37.4149C6.2316 37.4091 4.87227 37.2436 3.56159 36.9182C2.25091 36.5928 1.17262 36.1724 0.326717 35.657L2.16758 31.5365C2.96567 32.0037 3.85213 32.3833 4.82694 32.6753C5.81782 32.9514 6.77726 33.0913 7.70525 33.0951C8.24925 33.0973 8.67337 33.0671 8.97763 33.0043C9.29796 32.9256 9.53038 32.8226 9.6749 32.6951C9.81949 32.5517 9.89218 32.384 9.89296 32.192C9.8942 31.888 9.72719 31.6474 9.39191 31.47C9.05663 31.2926 8.60922 31.1468 8.04969 31.0325C7.50621 30.9023 6.90674 30.7718 6.25127 30.6411C5.59586 30.4945 4.93262 30.3077 4.26154 30.081C3.60646 29.8543 2.99968 29.5558 2.44119 29.1855C1.8987 28.8153 1.46066 28.3335 1.12708 27.7402C0.793572 27.1308 0.628647 26.3781 0.63231 25.4821C0.636561 24.4421 0.928417 23.4993 1.50788 22.6537C2.10341 21.7921 2.97821 21.1077 4.13229 20.6004C5.30238 20.0932 6.75141 19.8431 8.4794 19.8502C9.61539 19.8548 10.7349 19.9794 11.8379 20.2239C12.9409 20.4684 13.9314 20.8404 14.8094 21.34L13.0886 25.437C12.2583 25.0176 11.4516 24.7023 10.6684 24.4911C9.9013 24.28 9.14973 24.1729 8.41374 24.1699C7.86974 24.1677 7.43755 24.2139 7.11716 24.3086C6.79677 24.4033 6.56425 24.5304 6.4196 24.6898C6.29094 24.8492 6.22623 25.025 6.22544 25.217C6.22426 25.505 6.39131 25.7377 6.72659 25.915C7.06194 26.0764 7.50138 26.2142 8.04491 26.3284C8.60445 26.4427 9.21196 26.5652 9.86743 26.6959C10.5389 26.8266 11.2022 27.0053 11.8573 27.232C12.5123 27.4587 13.1111 27.7572 13.6536 28.1274C14.2121 28.4977 14.6581 28.9795 14.9917 29.5729C15.3253 30.1662 15.4903 30.9029 15.4867 31.7829C15.4825 32.8069 15.1826 33.7497 14.5871 34.6112C14.0077 35.4569 13.1408 36.1413 11.9867 36.6646C10.8326 37.1719 9.38358 37.422 7.63959 37.4149Z" fill="black"/>
</svg>
